<svg width="416" height="512" viewBox="0 0 416 512" fill="none" xmlns="http://www.w3.org/2000/svg">
<path fill-rule="evenodd" clip-rule="evenodd" d="M127.439 272.986C148.477 294.041 176.98 305.865 206.716 305.865C236.449 305.887 264.972 294.063 285.992 273.03C307.029 251.975 318.843 223.448 318.843 193.687C318.843 163.928 307.029 135.381 285.992 114.344C264.976 93.3108 236.451 81.4869 206.716 81.4869C176.98 81.4869 148.481 93.3333 127.439 114.366C106.534 135.465 94.7857 163.971 94.7857 193.687C94.7857 223.403 106.534 251.909 127.439 272.986ZM206.716 319.293C173.425 319.293 141.494 306.062 117.956 282.502C94.4181 258.942 81.1955 226.986 81.1955 193.667C81.1955 160.327 94.4153 128.373 117.956 104.81C141.496 81.2467 173.425 68.0185 206.716 68.0185C240.006 68.0185 271.938 81.2495 295.475 104.81C319.013 128.37 332.236 160.327 332.236 193.667C332.236 226.986 319.016 258.944 295.475 282.502C271.935 306.06 240.006 319.293 206.716 319.293ZM219.54 176.834C220.55 179.097 222.702 180.614 225.161 180.834L256.519 184.086L233.066 205.251H233.088C231.222 206.878 230.431 209.427 231.002 211.823L237.59 242.482L210.097 226.746C207.989 225.493 205.376 225.493 203.29 226.746L176.016 242.504L182.604 211.625V211.603C183.131 209.273 182.34 206.812 180.518 205.251L157.065 184.086L188.423 180.834H188.445C190.992 180.548 193.166 178.856 194.067 176.438L206.715 147.977L219.54 176.834ZM212.842 128.724L230.212 168.108L272.769 172.614C275.404 172.878 277.644 174.658 278.478 177.185C279.313 179.713 278.566 182.482 276.59 184.262L244.77 212.899L253.708 254.811C254.257 257.471 253.181 260.174 250.963 261.713C248.745 263.251 245.824 263.339 243.54 261.91L206.714 240.306L169.669 261.735C167.363 263.053 164.53 262.9 162.378 261.339C160.226 259.801 159.194 257.119 159.721 254.526L168.658 212.614L136.839 183.977C134.797 182.175 134.05 179.318 134.95 176.746C135.851 174.175 138.222 172.416 140.945 172.285L183.217 167.845L200.587 128.746V128.724C201.685 126.329 204.078 124.812 206.713 124.812C209.348 124.812 211.744 126.328 212.842 128.724ZM71.7955 323.846C56.534 344.154 39.4274 362.989 20.6961 380.11L73.3769 394.615V394.637C76.9124 395.604 79.0205 399.231 78.0982 402.791L57.0609 482.748C99.6841 449.583 136.798 409.869 167.031 365.1C156.227 361.891 136.683 375.056 121.619 367.628C106.533 360.199 105.127 337.584 96.8047 330.881C91.9736 326.99 79.259 325.87 71.5074 323.848L71.7955 323.846ZM246.679 365.077V365.099C276.807 409.846 313.829 449.562 356.368 482.746L335.572 402.964C334.628 399.404 336.736 395.756 340.293 394.811L392.974 380.305L392.952 380.283C374.221 363.14 357.114 344.306 341.853 324.02C334.101 326.042 321.387 327.162 316.556 331.053C308.233 337.756 306.542 360.525 291.763 367.8C276.984 375.053 257.133 362.173 246.351 365.272L246.679 365.077ZM232.515 357.275C224.522 362.901 214.31 374.154 206.713 374.154C196.085 374.154 184.226 355.582 169.491 352.088C154.757 348.593 135.762 360.022 127.505 355.868C119.248 351.714 116.766 329.758 105.523 320.703C94.2798 311.648 71.7933 313.605 66.1717 306.417C60.5501 299.209 67.4673 278.286 60.5501 265.121C53.6328 251.956 33.3425 244.638 31.1023 235.011C28.8624 225.385 44.1462 209.362 44.1462 193.648C44.1462 177.955 28.7963 161.978 31.1023 152.352C33.4081 142.725 53.984 135.758 60.5501 122.241C67.138 108.747 59.9791 88.4832 66.1717 80.945C72.3645 73.4068 93.5552 76.2857 105.194 66.9449C116.832 57.604 119.028 35.934 127.68 31.7801C136.332 27.6262 154.888 39.033 169.667 35.5603C184.446 32.0658 196.15 13.4942 206.712 13.4942C217.275 13.4942 229.199 32.0657 243.934 35.5603C258.668 39.0547 277.663 27.6259 285.92 31.7801C294.177 35.9339 296.549 57.604 308.407 66.9449C320.265 76.2858 341.632 73.6482 347.253 80.9669C352.875 88.2857 345.958 108.769 352.875 122.263C359.792 135.758 380.082 142.747 382.323 152.373C384.563 162 369.279 178.022 369.279 193.67C369.279 209.318 384.629 225.406 382.323 235.033C380.017 244.659 359.441 251.626 352.875 265.143C346.287 278.637 353.446 298.901 347.253 306.439C341.061 313.978 319.76 311.231 308.231 320.439C296.703 329.67 294.397 351.45 285.745 355.604C277.093 359.758 258.603 348.351 243.758 351.824C239.696 352.967 235.875 354.879 232.515 357.45V357.275ZM411.069 378.374C413.001 380.022 413.836 382.616 413.243 385.077C412.628 387.561 410.674 389.473 408.192 390.022L350.239 406L374.175 497.935C374.943 500.726 373.823 503.671 371.43 505.254C369.036 506.858 365.874 506.748 363.612 504.968C313.171 468.704 269.563 423.757 234.821 372.242C226.279 379.275 217.956 387.385 206.713 387.385C195.47 387.385 186.971 379.275 178.605 372.242C161.849 396.989 143.052 420.264 122.388 441.846C100.166 465.032 75.8785 486.175 49.8133 504.968C47.5515 506.748 44.3894 506.858 41.9959 505.254C39.6023 503.671 38.4824 500.726 39.251 497.935L63.2086 406L5.23847 390.022C2.75703 389.473 0.802671 387.561 0.187778 385.077C-0.405134 382.615 0.429332 380.022 2.36177 378.374C23.2894 360.286 42.2624 340.11 59.039 318.11C43.8651 305.89 54.0981 281.714 48.8717 271.011C44.1504 261.274 22.1032 254.132 18.348 238.044C14.5709 221.956 30.9966 205.626 30.9966 193.648C30.9966 181.67 14.527 165.516 18.348 149.318C22.1689 133.121 44.1501 126.088 48.8717 116.351C53.593 106.615 45.5558 85.2965 55.7233 72.5269C65.8908 59.7573 88.6627 63.1202 96.8095 56.2633C104.956 49.4065 106.823 26.7907 121.602 19.5164C136.381 12.2634 155.332 24.8131 166.575 22.2197C177.818 19.6263 189.852 0 206.717 0C223.582 0 236.01 19.8678 247.034 22.5055C258.058 25.1431 277.053 12.5496 292.007 19.7582C306.962 26.9669 308.477 49.8683 316.8 56.5497C325.123 63.2529 347.653 59.8683 357.886 72.5938C368.119 85.319 359.972 106.682 364.738 116.418C369.525 126.155 391.44 133.297 395.261 149.385C399.082 165.473 382.613 181.737 382.613 193.715C382.613 205.693 399.082 221.847 395.261 238.11C391.44 254.374 369.459 261.341 364.738 271.078C359.511 281.759 369.744 305.957 354.57 318.177C371.282 340.132 390.206 360.309 411.069 378.374Z" fill="#1E4469"/>
</svg>
