<svg width="472" height="512" viewBox="0 0 472 512" fill="none" xmlns="http://www.w3.org/2000/svg">
<path fill-rule="evenodd" clip-rule="evenodd" d="M331.762 213.316L373.879 286.235C375.091 288.341 375.67 290.656 375.644 292.946C375.591 295.288 374.933 297.551 373.616 299.604C372.325 301.656 370.534 303.235 368.453 304.288C366.372 305.314 364.055 305.762 361.631 305.577L332.895 303.156C332.395 303.104 331.947 303.209 331.605 303.393L331.447 303.472C331.157 303.683 330.894 303.972 330.736 304.341L318.462 330.42V330.446C317.434 332.656 315.854 334.446 313.931 335.735C312.008 336.999 309.77 337.735 307.294 337.841C304.844 337.946 302.553 337.393 300.524 336.288C298.496 335.183 296.784 333.525 295.573 331.42L251.375 254.923C246.16 257.581 240.26 259.054 234.07 259.054C227.881 259.054 221.98 257.554 216.766 254.923L172.568 331.42C171.357 333.525 169.645 335.183 167.616 336.288C165.588 337.393 163.297 337.946 160.847 337.841C158.398 337.735 156.132 336.999 154.21 335.735C152.287 334.446 150.707 332.656 149.679 330.446V330.42L137.405 304.367C137.195 303.946 136.905 303.604 136.536 303.393C136.194 303.209 135.746 303.104 135.245 303.156L106.509 305.577C104.112 305.788 101.768 305.314 99.6876 304.288C97.6068 303.262 95.8157 301.683 94.5251 299.604C93.2345 297.551 92.5497 295.288 92.497 292.946C92.4443 290.63 93.0238 288.341 94.2618 286.235L136.378 213.316C134.271 209.684 132.796 205.763 131.953 201.736C130.452 194.421 131.058 186.736 133.797 179.737C135.298 175.921 135.878 172.842 135.167 170.579C134.508 168.579 132.506 166.815 128.714 165.289L128.424 165.157C121.338 162.263 115.307 157.341 111.066 151.105C106.878 144.921 104.429 137.5 104.429 129.526C104.429 121.553 106.878 114.131 111.066 107.948C115.36 101.632 121.497 96.6317 128.714 93.7632C132.507 92.2369 134.535 90.4737 135.167 88.4737C135.904 86.2105 135.299 83.1315 133.797 79.3156C131.058 72.3153 130.426 64.6313 131.954 57.3158C133.429 50.1841 136.905 43.421 142.384 37.9473C142.489 37.8421 142.595 37.7631 142.7 37.6579C148.284 32.2105 155.133 28.7895 162.323 27.4212C169.83 25.9739 177.732 26.7897 184.843 29.816C188.609 31.4212 191.296 31.6054 193.193 30.6581C195.3 29.5791 197.065 26.9738 198.698 23.2368C201.7 16.3423 206.705 10.4476 212.974 6.34213C219.058 2.34213 226.301 0 234.045 0C241.788 0 249.032 2.34213 255.116 6.34213C261.359 10.4474 266.363 16.316 269.392 23.2368C271.025 26.9736 272.79 29.5789 274.897 30.6581C276.767 31.6318 279.454 31.4476 283.247 29.816C290.385 26.7897 298.261 25.9739 305.767 27.4212C313.089 28.816 320.069 32.3423 325.705 37.9476C331.184 43.4212 334.661 50.1844 336.136 57.316C337.664 64.6315 337.031 72.3162 334.266 79.3158C332.765 83.1316 332.185 86.2103 332.896 88.4739C333.555 90.4739 335.557 92.237 339.349 93.7634L339.639 93.8949C346.725 96.7897 352.756 101.711 356.997 107.947C361.185 114.132 363.634 121.552 363.634 129.526C363.634 137.5 361.185 144.921 356.997 151.105C352.703 157.421 346.566 162.421 339.349 165.289C335.556 166.816 333.528 168.579 332.896 170.579C332.159 172.842 332.764 175.921 334.239 179.737C337.005 186.737 337.611 194.421 336.109 201.737C335.346 205.763 333.87 209.684 331.762 213.316ZM449.291 390.421C441.836 397.473 434.698 403.973 425.664 411.868C416.551 419.815 405.673 429.052 390.923 441.394V453.657H393.03C395.98 453.657 398.667 454.868 400.616 456.815L400.642 456.842C402.591 458.789 403.803 461.473 403.803 464.42V500.289C403.803 503.236 402.591 505.92 400.642 507.868L400.589 507.92C398.64 509.841 395.954 511.052 393.03 511.052L299.817 511.026C296.84 511.026 294.154 509.815 292.205 507.868C290.256 505.92 289.044 503.236 289.044 500.262V464.394C289.044 461.447 290.256 458.763 292.205 456.815L292.231 456.789C294.18 454.842 296.867 453.631 299.817 453.631H301.95V420.763C301.924 419.657 301.924 418.578 301.95 417.473V417.447C302.161 408.579 304.057 400.21 307.64 392.341C311.195 384.525 316.437 377.262 323.311 370.525L323.469 370.341L370.327 323.657C374.409 319.578 379.782 317.552 385.129 317.552V317.578C390.503 317.578 395.876 319.604 399.932 323.657C402.54 326.262 404.331 329.42 405.253 332.789L407.887 330.183L407.834 215.812C407.834 205.733 413.813 199.365 421.451 196.601C424.217 195.601 427.219 195.101 430.222 195.101C433.225 195.101 436.201 195.575 438.914 196.549C446.448 199.233 452.348 205.364 452.426 214.891L467.36 332.84L467.413 333.129C468.967 343.418 468.282 353.313 465.332 362.813C462.409 372.234 457.299 381.208 449.977 389.708C449.766 389.997 449.528 390.21 449.291 390.421ZM380.149 453.657V438.894C380.149 437.368 380.808 435.842 382.072 434.763C398.218 421.263 409.596 411.631 418.605 403.789C427.797 395.762 434.803 389.394 441.941 382.657C448.236 375.315 452.635 367.657 455.084 359.71C457.35 352.395 458.008 344.736 457.06 336.789L456.954 335.921L456.796 334.789C456.77 334.605 456.744 334.421 456.744 334.237L441.73 215.817C441.704 215.58 441.677 215.369 441.677 215.132H441.651C441.651 210.817 438.885 208.001 435.33 206.738C433.697 206.159 431.932 205.869 430.193 205.869C428.455 205.869 426.69 206.159 425.084 206.738C421.396 208.08 418.525 211.106 418.525 215.843L418.578 332.451C418.578 333.925 417.972 335.267 416.997 336.241L400.43 352.74C400.246 352.925 400.088 353.109 399.903 353.293L375.382 377.793C373.275 379.898 369.877 379.898 367.77 377.793C365.663 375.688 365.663 372.293 367.77 370.188L392.291 345.688C394.267 343.714 395.241 341.109 395.241 338.504H395.268C395.268 335.898 394.267 333.293 392.291 331.319C390.316 329.346 387.682 328.346 385.101 328.346V328.372C382.467 328.372 379.859 329.372 377.884 331.346L333.845 375.214C333.608 375.556 333.345 375.846 333.029 376.135C332.449 376.661 331.87 377.214 331.29 377.74L331.027 378.004L330.79 378.214C324.863 384.004 320.385 390.214 317.357 396.819C314.38 403.346 312.8 410.319 312.616 417.741V453.635L380.149 453.657ZM299.842 500.263H393.001V464.421H299.842V500.263ZM393.001 500.263C393.001 500.289 392.975 500.289 393.001 500.289V500.263ZM26.2774 382.658C33.4154 389.395 40.3956 395.763 49.6137 403.789C58.5952 411.632 69.9738 421.289 86.1465 434.763C87.4108 435.816 88.0693 437.342 88.0693 438.895V453.658H155.525V417.763C155.34 410.342 153.76 403.369 150.784 396.842C147.755 390.237 143.277 384.027 137.351 378.237L137.114 378.026L136.824 377.737C136.271 377.211 135.691 376.684 135.112 376.158C134.796 375.868 134.532 375.579 134.322 375.237L90.2827 331.369C88.3072 329.395 85.6733 328.395 83.0395 328.395V328.369C80.4319 328.369 77.8243 329.369 75.8489 331.342L75.6119 331.553C73.7945 333.5 72.8726 336 72.8726 338.527C72.8726 341.132 73.8735 343.737 75.849 345.711L100.371 370.211C102.478 372.316 102.478 375.711 100.371 377.816C98.2636 379.921 94.8658 379.921 92.7587 377.816L68.2369 353.316C68.0526 353.132 67.8682 352.948 67.7102 352.763L51.143 336.264C50.1684 335.29 49.5626 333.948 49.5626 332.474L49.6153 215.866C49.6153 211.103 46.7179 208.077 43.0568 206.761C41.4501 206.182 39.7117 205.892 37.9469 205.892C36.2086 205.892 34.4438 206.182 32.8108 206.761C29.255 208.024 26.4894 210.84 26.4894 215.155H26.463C26.463 215.392 26.4367 215.603 26.4103 215.84L11.423 334.26C11.423 334.444 11.3966 334.628 11.3703 334.812C11.3176 335.181 11.265 335.576 11.2123 335.944L11.1069 336.812C10.1587 344.786 10.8172 352.444 13.0824 359.733C15.5846 367.654 19.9822 375.316 26.2774 382.658ZM77.2965 453.657V441.394C62.5202 429.052 51.6683 419.815 42.5553 411.868C33.4943 403.973 26.3832 397.473 18.929 390.421C18.692 390.236 18.4549 390 18.2442 389.736C10.9221 381.237 5.81172 372.289 2.88869 362.842C-0.0613057 353.341 -0.74611 343.447 0.807916 333.158L0.860595 332.868L15.7947 214.92C15.8737 205.393 21.7473 199.262 29.3067 196.577C32.046 195.604 35.0223 195.13 37.9989 195.13C41.0016 195.13 44.0042 195.63 46.77 196.63C54.4083 199.393 60.3872 205.762 60.3872 215.841L60.3345 330.212L62.9421 332.817C63.8376 329.633 65.5234 326.607 67.9466 324.054C68.052 323.922 68.1573 323.817 68.2627 323.712C72.3189 319.659 77.6919 317.633 83.0653 317.633V317.607C88.4122 317.607 93.7851 319.659 97.8679 323.712L144.725 370.396L144.91 370.58C151.784 377.291 157 384.58 160.581 392.396C164.164 400.265 166.06 408.633 166.271 417.502V417.528C166.297 418.607 166.297 419.712 166.271 420.818V453.686H168.404C171.381 453.686 174.067 454.897 176.016 456.844C177.965 458.791 179.177 461.475 179.177 464.449V500.317C179.177 503.265 177.965 505.949 176.016 507.896L175.99 507.923C174.041 509.87 171.354 511.081 168.404 511.081L75.1909 511.028C72.2409 511.028 69.5543 509.817 67.6052 507.87L67.5789 507.844C65.6298 505.896 64.4182 503.212 64.4182 500.265V464.397C64.4182 461.449 65.6298 458.765 67.5789 456.818L67.6052 456.791C69.5543 454.844 72.2409 453.633 75.1909 453.633L77.2965 453.657ZM75.1894 500.263H168.349V464.421H75.1894V500.263ZM234.092 55.7862C213.705 55.7862 195.241 64.0496 181.887 77.3912C168.533 90.7335 160.263 109.181 160.263 129.549C160.263 149.917 168.533 168.365 181.887 181.707C195.241 195.049 213.705 203.312 234.092 203.312C254.478 203.312 272.942 195.049 286.296 181.707C299.65 168.365 307.92 149.917 307.92 129.549C307.92 109.181 299.65 90.7335 286.296 77.3912C272.942 64.0226 254.478 55.7862 234.092 55.7862ZM278.684 84.9702C267.279 73.5755 251.502 66.5227 234.092 66.5227C216.681 66.5227 200.904 73.5755 189.499 84.9702C178.094 96.3649 171.035 112.128 171.035 129.523C171.035 146.918 178.094 162.681 189.499 174.076C200.904 185.47 216.681 192.523 234.092 192.523C251.502 192.523 267.279 185.47 278.684 174.076C290.089 162.681 297.148 146.918 297.148 129.523C297.148 112.128 290.089 96.3911 278.684 84.9702ZM242.283 85.8123C241.52 84.2333 240.361 82.9439 238.938 82.0491C237.49 81.1544 235.83 80.6544 234.092 80.6544C232.354 80.6544 230.694 81.1544 229.245 82.0491C227.823 82.9439 226.664 84.2334 225.9 85.8123L216.471 105.312L195.005 108.233C193.24 108.47 191.66 109.18 190.369 110.259C189.078 111.338 188.104 112.759 187.551 114.444V114.47C186.998 116.154 186.945 117.865 187.366 119.47C187.761 121.102 188.631 122.601 189.921 123.812L205.567 138.812L201.721 160.128C201.405 161.865 201.589 163.576 202.222 165.128C202.854 166.681 203.907 168.076 205.33 169.102C206.752 170.128 208.385 170.707 210.071 170.839C211.598 170.944 213.126 170.655 214.548 169.97C214.706 169.918 214.838 169.839 214.97 169.76L234.092 159.497L253.188 169.734H253.214C254.768 170.576 256.454 170.918 258.113 170.813C259.799 170.707 261.432 170.128 262.854 169.076V169.049C264.276 168.023 265.356 166.655 265.962 165.102C266.594 163.549 266.752 161.839 266.463 160.102L262.617 138.786L278.289 123.786C279.553 122.575 280.422 121.075 280.844 119.444C281.212 117.944 281.212 116.338 280.765 114.786C280.738 114.654 280.712 114.549 280.659 114.417C280.106 112.733 279.132 111.312 277.841 110.233C276.55 109.154 274.97 108.444 273.205 108.207L251.739 105.286L242.283 85.8123ZM242.415 110.759L234.092 93.5226L225.768 110.759C225.084 112.154 224.135 113.312 222.924 114.181C221.738 115.049 220.342 115.602 218.788 115.812L199.798 118.391L213.652 131.655C214.759 132.734 215.575 133.997 216.023 135.391V135.418C216.471 136.812 216.576 138.312 216.286 139.812L212.889 158.681L229.772 149.628H229.798C231.168 148.891 232.617 148.523 234.092 148.523C235.567 148.523 237.015 148.891 238.411 149.628L255.295 158.681L251.897 139.839C251.633 138.444 251.712 137.076 252.055 135.812C252.081 135.681 252.134 135.549 252.16 135.418C252.608 134.023 253.425 132.733 254.531 131.681L268.385 118.417L249.395 115.838C247.841 115.628 246.445 115.075 245.259 114.207C244.074 113.312 243.1 112.154 242.415 110.759ZM249.922 243.341C250.08 243.209 250.264 243.077 250.475 242.972C254.452 240.077 257.613 236.13 259.615 231.577C262.196 225.63 265.489 221.235 270.072 218.893C274.866 216.446 280.529 216.42 287.482 219.393C292.644 221.578 298.334 222.156 303.786 221.13C308.949 220.13 313.874 217.683 317.877 213.788C317.956 213.709 318.035 213.604 318.114 213.525C322.065 209.578 324.594 204.709 325.648 199.604C326.754 194.315 326.306 188.736 324.304 183.657C321.934 177.63 321.17 172.209 322.724 167.314C324.383 162.183 328.36 158.183 335.419 155.341H335.446C340.661 153.262 345.086 149.683 348.194 145.104C351.196 140.683 352.935 135.315 352.935 129.552C352.935 123.762 351.17 118.42 348.194 113.999C345.138 109.499 340.792 105.947 335.709 103.868L335.445 103.762C328.386 100.946 324.409 96.9204 322.75 91.7889C321.169 86.8942 321.96 81.4997 324.33 75.4467C326.332 70.3677 326.78 64.789 325.673 59.4992C324.62 54.4202 322.118 49.5516 318.14 45.5782C314.084 41.5256 309.053 38.9729 303.785 37.973C298.333 36.9467 292.644 37.4993 287.481 39.7098C280.501 42.6835 274.865 42.6572 270.071 40.2098C265.488 37.8677 262.195 33.4993 259.614 27.5519C257.428 22.5519 253.82 18.2888 249.29 15.3414C244.944 12.473 239.728 10.8151 234.092 10.8151C228.482 10.8151 223.266 12.4729 218.894 15.3414C214.39 18.3151 210.756 22.5519 208.57 27.5782C205.988 33.5256 202.696 37.9206 198.113 40.2361C193.319 42.6834 187.682 42.7098 180.703 39.7361C175.54 37.5519 169.851 36.9466 164.398 37.9993C159.236 38.9993 154.31 41.4203 150.307 45.3411C150.228 45.42 150.149 45.5253 150.07 45.6042C146.093 49.5516 143.591 54.4201 142.537 59.5252C141.431 64.8147 141.879 70.3938 143.88 75.4727C146.251 81.499 147.015 86.9199 145.461 91.8149C143.801 96.9465 139.824 100.947 132.765 103.788H132.739C127.524 105.867 123.099 109.446 119.991 114.025C116.988 118.446 115.25 123.814 115.25 129.578C115.25 135.367 117.015 140.735 119.991 145.13C123.046 149.63 127.393 153.183 132.476 155.262L132.739 155.367C139.798 158.183 143.775 162.209 145.435 167.34C147.015 172.235 146.225 177.63 143.854 183.683C141.853 188.762 141.405 194.34 142.511 199.63C143.565 204.709 146.067 209.578 150.044 213.551C154.101 217.604 159.132 220.13 164.399 221.156C169.851 222.183 175.54 221.63 180.703 219.42C187.684 216.446 193.32 216.472 198.113 218.92C202.696 221.262 205.989 225.656 208.57 231.604C210.572 236.183 213.759 240.104 217.736 243.025C217.895 243.13 218.079 243.261 218.237 243.367L218.895 243.814C223.241 246.683 228.457 248.34 234.093 248.34C239.703 248.34 244.919 246.683 249.291 243.814L249.922 243.341ZM260.247 248.735L304.892 326.027C305.102 326.395 305.392 326.711 305.708 326.869C306.051 327.053 306.446 327.132 306.867 327.132C307.289 327.106 307.684 327.001 308 326.79C308.289 326.606 308.553 326.29 308.737 325.869L321.011 299.816C322.118 297.501 323.803 295.632 325.858 294.343C325.989 294.264 326.095 294.185 326.226 294.106C328.465 292.816 331.073 292.211 333.786 292.422L362.522 294.843C362.97 294.869 363.391 294.816 363.707 294.659C364.023 294.501 364.313 294.237 364.55 293.843C364.787 293.448 364.919 293.08 364.919 292.738C364.919 292.369 364.813 291.974 364.603 291.606V291.58L324.541 222.237C319.115 227.211 312.609 230.342 305.814 231.632C298.281 233.079 290.405 232.263 283.294 229.237C279.527 227.632 276.841 227.448 274.944 228.395C272.837 229.474 271.072 232.079 269.439 235.816C267.306 240.737 264.145 245.13 260.247 248.735ZM207.937 248.735C204.039 245.13 200.878 240.735 198.744 235.814C197.111 232.077 195.347 229.472 193.239 228.393C191.369 227.419 188.683 227.603 184.89 229.235C177.752 232.261 169.876 233.077 162.37 231.63C155.548 230.314 149.042 227.182 143.643 222.235L103.581 291.55V291.577C103.37 291.971 103.239 292.366 103.265 292.708C103.265 293.05 103.397 293.419 103.634 293.814C103.871 294.182 104.16 294.471 104.477 294.629C104.793 294.787 105.214 294.866 105.662 294.813L134.398 292.392C137.111 292.156 139.718 292.761 141.957 294.077C144.17 295.366 145.987 297.313 147.172 299.787L159.446 325.84C159.631 326.235 159.894 326.55 160.184 326.761C160.5 326.971 160.869 327.103 161.317 327.103C161.764 327.129 162.159 327.024 162.502 326.84C162.818 326.656 163.108 326.366 163.318 325.998L207.937 248.735Z" fill="#1E4469"/>
</svg>
