<svg width="616" height="512" viewBox="0 0 616 512" fill="none" xmlns="http://www.w3.org/2000/svg">
<path fill-rule="evenodd" clip-rule="evenodd" d="M565.783 84.6833C569.851 84.6833 573.174 87.969 573.174 92.0546C573.174 96.1118 569.88 99.4259 565.783 99.4259H514.966C510.898 99.4259 507.575 96.1402 507.575 92.0546C507.575 87.9974 510.869 84.6833 514.966 84.6833H565.783ZM309.373 201.88C327.277 201.88 343.462 209.109 355.178 220.823C366.895 232.509 374.141 248.68 374.141 266.508C374.141 284.365 366.894 300.508 355.178 312.194C343.462 323.88 327.248 331.108 309.373 331.108C291.47 331.108 275.285 323.88 263.569 312.194C251.852 300.509 244.577 284.337 244.577 266.508C244.577 248.68 251.824 232.509 263.569 220.823C275.285 209.108 291.47 201.88 309.373 201.88ZM344.751 231.194C335.699 222.165 323.181 216.566 309.373 216.566C295.566 216.566 283.048 222.137 273.996 231.166C264.944 240.194 259.329 252.68 259.329 266.451C259.329 280.223 264.944 292.708 273.996 301.737C283.048 310.766 295.566 316.365 309.373 316.365C323.181 316.365 335.699 310.766 344.751 301.737C353.803 292.708 359.389 280.223 359.389 266.451C359.418 252.708 353.803 240.223 344.751 231.194ZM190.839 469.596C203.157 474.053 215.475 477.825 227.792 480.911H227.878L228.022 480.939L228.079 480.968C255.178 487.711 282.277 491.082 309.376 491.082C336.504 491.082 363.631 487.71 390.732 480.939L390.904 480.911H390.933C403.365 477.796 415.797 473.996 428.229 469.482C428.688 469.311 429.06 469.025 429.289 468.711C429.518 468.368 429.662 467.911 429.633 467.425C428.516 435.254 414.651 406.253 392.938 385.366C391.305 383.795 389.615 382.252 387.867 380.766L387.724 380.652L387.638 380.594C366.612 362.623 339.284 351.766 309.377 351.766C279.442 351.766 252.085 362.652 231.027 380.652L230.942 380.737C229.194 382.252 227.475 383.794 225.843 385.394C204.129 406.309 190.264 435.28 189.147 467.453C189.147 467.939 189.262 468.368 189.491 468.739C189.72 469.082 190.093 469.368 190.551 469.51L190.839 469.596ZM309.375 505.796C281.646 505.796 253.917 502.396 226.186 495.625C191.982 503.967 157.722 507.167 123.49 505.225C88.7707 503.225 54.0811 495.939 19.4443 483.396L19.0719 483.253C15.6344 481.996 12.7984 479.739 10.8791 476.882C8.9597 474.025 7.92856 470.596 8.04311 466.939C9.30356 430.767 24.8584 398.225 49.2359 374.764C73.5276 351.364 106.585 336.992 142.993 336.992C159.464 336.992 175.248 339.935 189.886 345.364C203.091 350.249 215.294 357.107 226.18 365.62C249.125 347.706 278 336.992 309.398 336.992C340.765 336.992 369.67 347.677 392.588 365.62C403.473 357.106 415.705 350.249 428.882 345.364C443.491 339.964 459.303 336.992 475.775 336.992C512.183 336.992 545.213 351.393 569.532 374.764C593.909 398.221 609.464 430.764 610.724 466.939C610.839 470.596 609.808 474.053 607.888 476.882C605.969 479.739 603.133 481.967 599.667 483.225C564.891 495.882 530.086 503.196 495.284 505.196C461.024 507.167 426.792 503.967 392.559 495.596C364.83 502.425 337.106 505.796 309.375 505.796ZM195.738 486.824C171.904 490.681 148.1 491.91 124.295 490.567C91.0366 488.653 57.7507 481.652 24.4368 469.596L24.1217 469.481C23.6633 469.31 23.291 469.024 23.0618 468.71C22.8326 468.367 22.6894 467.91 22.718 467.424C23.8352 435.253 37.7 406.253 59.4133 385.365C81.0408 364.536 110.489 351.736 142.977 351.736C157.701 351.736 171.794 354.365 184.799 359.165C195.656 363.193 205.768 368.708 214.878 375.508C190.93 398.907 175.661 431.165 174.401 466.995C174.287 470.652 175.289 474.109 177.237 476.938C179.157 479.795 181.993 482.052 185.43 483.309L185.831 483.452C189.126 484.595 192.443 485.738 195.738 486.824ZM403.85 375.479C412.96 368.679 423.1 363.164 433.957 359.136C446.962 354.336 461.056 351.707 475.78 351.707C508.236 351.707 537.684 364.507 559.314 385.336C581.027 406.251 594.892 435.222 596.009 467.395C596.038 467.881 595.895 468.31 595.666 468.681C595.436 469.024 595.093 469.31 594.634 469.452C561.233 481.624 527.832 488.652 494.461 490.566C470.656 491.938 446.823 490.681 423.018 486.824C426.427 485.681 429.836 484.481 433.273 483.252H433.302C436.739 481.995 439.575 479.738 441.495 476.881C443.414 474.024 444.445 470.595 444.33 466.938C443.07 431.138 427.827 398.879 403.85 375.479ZM142.974 201.882C160.878 201.882 177.063 209.11 188.779 220.824C200.495 232.51 207.742 248.681 207.742 266.51C207.742 284.367 200.495 300.51 188.779 312.196C177.063 323.882 160.849 331.11 142.974 331.11C125.071 331.11 108.886 323.881 97.1695 312.196C85.4531 300.51 78.2063 284.338 78.2063 266.51C78.2063 248.681 85.4536 232.51 97.1695 220.824C108.886 209.11 125.099 201.882 142.974 201.882ZM178.352 231.196C169.299 222.167 156.781 216.567 142.974 216.567C129.167 216.567 116.649 222.139 107.597 231.167C98.5445 240.196 92.9301 252.681 92.9301 266.453C92.9301 280.224 98.5447 292.71 107.597 301.738C116.649 310.767 129.167 316.367 142.974 316.367C156.781 316.367 169.299 310.767 178.352 301.738C187.404 292.71 192.99 280.224 192.99 266.453C193.018 252.71 187.404 240.224 178.352 231.196ZM475.784 201.882C493.688 201.882 509.873 209.11 521.589 220.824C533.306 232.51 540.581 248.681 540.581 266.51C540.581 284.367 533.334 300.51 521.618 312.196C509.902 323.882 493.688 331.11 475.813 331.11C457.909 331.11 441.725 323.881 430.008 312.196C418.292 300.51 411.016 284.338 411.016 266.51C411.016 248.681 418.264 232.51 430.008 220.824C441.696 209.11 457.881 201.882 475.784 201.882ZM511.162 231.196C502.11 222.167 489.592 216.567 475.784 216.567C461.977 216.567 449.459 222.139 440.407 231.167C431.355 240.196 425.74 252.681 425.74 266.453C425.74 280.224 431.326 292.71 440.407 301.738C449.459 310.767 461.977 316.367 475.784 316.367C489.592 316.367 502.11 310.767 511.162 301.738C520.214 292.71 525.829 280.224 525.829 266.453C525.8 252.71 520.214 240.224 511.162 231.196ZM106.369 144.17H26.3332C21.2915 144.17 16.7082 142.113 13.3855 138.799C10.0626 135.485 8 130.913 8 125.885V26.2861C8 21.2576 10.0625 16.6861 13.3855 13.372C13.5573 13.2006 13.7292 13.0578 13.9011 12.8863C17.1667 9.85778 21.5497 8.0006 26.3333 8.0006H170.477C175.49 8.0006 180.074 10.0577 183.396 13.3721L183.425 13.4006C186.748 16.7149 188.811 21.2862 188.811 26.2862V125.885C188.811 130.913 186.748 135.456 183.425 138.77L183.396 138.799L183.425 138.828C180.102 142.142 175.519 144.199 170.477 144.199L150.368 144.17V172.113C150.368 176.17 147.074 179.485 142.977 179.485C140.6 179.485 138.48 178.342 137.134 176.599L106.369 144.17ZM26.3332 129.456H109.523V129.485C111.47 129.485 113.418 130.256 114.851 131.77L135.619 153.656V136.799C135.619 132.742 138.913 129.428 143.009 129.428H170.481C171.455 129.428 172.343 129.028 173.001 128.371V128.399C173.632 127.742 174.033 126.856 174.033 125.885V26.2862C174.033 25.3148 173.632 24.4005 173.001 23.7719C172.343 23.1434 171.455 22.7434 170.481 22.7434H26.3366C25.4486 22.7434 24.6465 23.0577 24.0162 23.572L23.8157 23.772C23.1568 24.4291 22.7558 25.3148 22.7558 26.2863V125.885C22.7558 126.856 23.1569 127.742 23.8157 128.399C24.4459 129.056 25.3592 129.456 26.3332 129.456ZM294.286 129.456C297.523 129.456 300.273 131.542 301.275 134.456L309.382 153.428L317.489 134.456C318.492 131.542 321.242 129.456 324.479 129.456H381.455C382.429 129.456 383.317 129.056 383.976 128.399V128.428C384.606 127.771 385.007 126.885 385.007 125.913V26.2855C385.007 25.314 384.606 24.3998 383.976 23.7712C383.317 23.1426 382.429 22.7426 381.455 22.7426H237.311C236.423 22.7426 235.621 23.0569 234.991 23.5712L234.79 23.7712C234.132 24.4283 233.731 25.3141 233.731 26.2855V125.884C233.731 126.856 234.132 127.741 234.79 128.398C235.449 129.056 236.337 129.456 237.311 129.456L294.286 129.456ZM289.416 144.17H237.309C232.267 144.17 227.684 142.113 224.361 138.799C221.038 135.485 218.976 130.913 218.976 125.885L219.005 26.2861C219.005 21.2576 221.067 16.6861 224.39 13.372C224.562 13.2006 224.734 13.0578 224.906 12.8863C228.171 9.85778 232.554 8.0006 237.338 8.0006H381.482C386.495 8.0006 391.078 10.0577 394.401 13.3721L394.43 13.4006C397.752 16.7149 399.815 21.2862 399.815 26.2862V125.885C399.815 130.913 397.753 135.456 394.43 138.77L394.401 138.799L394.43 138.828C391.107 142.142 386.524 144.199 381.482 144.199H329.375L316.198 174.999C314.593 178.742 310.268 180.456 306.544 178.884C304.711 178.113 303.364 176.684 302.648 174.999L289.416 144.17ZM52.9747 62.1699H143.813C147.88 62.1699 151.203 58.8842 151.203 54.7986C151.203 50.7414 147.909 47.4272 143.813 47.4272H52.9747C48.907 47.4272 45.5842 50.7129 45.5842 54.7986C45.5842 58.8557 48.8785 62.1699 52.9747 62.1699ZM123.128 99.4274H143.811C147.878 99.4274 151.201 96.1417 151.201 92.0561C151.201 87.9989 147.907 84.6847 143.811 84.6847H123.128C119.061 84.6847 115.738 87.9704 115.738 92.0561C115.766 96.1132 119.061 99.4274 123.128 99.4274ZM52.9747 99.4274H103.793C107.86 99.4274 111.183 96.1417 111.183 92.0561C111.183 87.9989 107.889 84.6847 103.793 84.6847H52.9747C48.907 84.6847 45.5842 87.9704 45.5842 92.0561C45.5842 96.1132 48.8785 99.4274 52.9747 99.4274ZM265.267 83.2277C262.346 79.6277 261.142 75.1703 261.601 70.9134C262.03 66.8562 263.892 62.9708 267.129 60.0846L267.187 60.0274L267.674 59.6274L267.731 59.5989C271.34 56.6846 275.781 55.4846 280.077 55.9417C284.145 56.3703 288.041 58.2274 290.934 61.456L290.963 61.5132L291.393 61.9989L291.421 62.0275L300.961 73.7135L304.856 68.9421L310.586 61.9135L310.557 61.8849L310.671 61.7707L327.343 41.2848L327.372 41.2277L327.773 40.7419L327.83 40.6848C330.723 37.4562 334.619 35.5705 338.687 35.1705C342.955 34.7419 347.424 35.9133 351.033 38.8276L351.091 38.8562L351.578 39.2562L351.635 39.3133C354.872 42.199 356.763 46.0848 357.192 50.1421C357.622 54.3993 356.448 58.8564 353.526 62.4565L336.825 82.9708L331.039 90.0852L331.01 90.1423L314.31 110.628C313.88 111.171 313.393 111.685 312.906 112.171C312.362 112.714 311.818 113.142 311.331 113.514L311.302 113.485C307.722 116.314 303.31 117.428 299.099 117C294.831 116.542 290.735 114.485 287.812 110.885L265.267 83.2277ZM276.21 72.3989C276.268 71.8561 276.525 71.3418 276.955 70.9704L276.984 70.9418C277.413 70.5989 277.986 70.4561 278.531 70.5132C279.075 70.5704 279.59 70.8275 279.963 71.2561L279.991 71.2846L292.338 86.4559C293.426 87.7702 294.715 88.7988 296.148 89.4845V89.4559C297.666 90.1702 299.27 90.5416 300.903 90.5416C302.593 90.5416 304.169 90.1702 305.658 89.4845V89.4559C307.119 88.7702 308.408 87.7416 309.468 86.4559L316.2 78.1988L322.044 71.0274L322.187 70.8845L338.744 50.5705L338.773 50.542C339.116 50.1134 339.661 49.8562 340.205 49.7991C340.749 49.742 341.322 49.8848 341.752 50.2277L341.78 50.2563C342.21 50.6277 342.497 51.142 342.554 51.6848C342.611 52.2277 342.468 52.8277 342.124 53.2562L325.424 73.7706L319.58 80.942L319.552 80.9992L302.88 101.457L302.851 101.485L302.708 101.657L302.536 101.799L302.278 102.057C301.849 102.399 301.276 102.542 300.703 102.485C300.159 102.428 299.643 102.171 299.271 101.742L276.727 74.0562C276.297 73.5134 276.153 72.9703 276.21 72.3989ZM509.269 129.456H592.459C593.433 129.456 594.321 129.056 594.98 128.399L595.18 128.199C595.696 127.57 596.011 126.77 596.011 125.884V26.2857C596.011 25.3143 595.61 24.4 594.98 23.7714C594.321 23.1428 593.433 22.7429 592.459 22.7429H448.315C447.341 22.7429 446.424 23.1428 445.794 23.7714L445.823 23.8C445.164 24.4571 444.763 25.3428 444.763 26.3142V125.913C444.763 126.884 445.164 127.77 445.823 128.427C446.481 129.084 447.369 129.484 448.343 129.484H475.815C479.883 129.484 483.205 132.77 483.205 136.856V153.713L503.973 131.827C505.406 130.313 507.354 129.541 509.301 129.541L509.269 129.456ZM592.429 144.17C597.471 144.17 602.054 142.113 605.377 138.798C605.549 138.627 605.692 138.456 605.836 138.284C608.872 135.027 610.734 130.655 610.734 125.884L610.763 26.2856C610.763 21.2856 608.7 16.7141 605.377 13.4L605.348 13.3715C602.026 10.0572 597.471 8 592.429 8L448.315 8.02857C443.273 8.02857 438.718 10.0857 435.396 13.4H435.338C432.015 16.7143 429.953 21.2856 429.953 26.3141V125.913C429.953 130.941 432.015 135.513 435.338 138.827C438.661 142.141 443.244 144.198 448.286 144.198H468.367V172.141C468.367 176.198 471.661 179.512 475.757 179.512C478.135 179.512 480.255 178.37 481.601 176.627L512.338 144.227L592.429 144.17ZM565.789 47.4238C569.857 47.4238 573.179 50.7096 573.179 54.7952C573.179 58.8523 569.885 62.1665 565.789 62.1665H474.951C470.883 62.1665 467.56 58.8808 467.56 54.7952C467.56 50.738 470.855 47.4238 474.951 47.4238H565.789ZM495.635 84.6814C499.703 84.6814 503.026 87.9671 503.026 92.0527C503.026 96.1099 499.732 99.424 495.635 99.424H474.953C470.885 99.424 467.563 96.1383 467.563 92.0527C467.563 87.9955 470.857 84.6814 474.953 84.6814H495.635Z" fill="#1E4469"/>
</svg>
