<svg width="504" height="512" viewBox="0 0 504 512" fill="none" xmlns="http://www.w3.org/2000/svg">
<path d="M489.288 365.061H464.601C459.955 365.061 456.04 368.061 454.558 372.195H441.153C438.963 366.595 431.243 351.106 411.445 350.039V257.174C411.445 257.152 411.467 257.107 411.467 257.085L411.445 180.598L427.902 169.131C445.842 156.62 456.571 136.042 456.571 114.109V46.1779C461.681 45.3556 465.596 40.9334 465.596 35.5777V10.7554C465.596 4.8219 460.796 0 454.89 0H368.219C362.313 0 357.491 4.82224 357.491 10.7554V35.5556C357.491 40.2222 360.477 44.1554 364.591 45.6442V59.111C359.017 61.311 343.621 69.1996 342.537 88.9554L250.005 88.9777H179.773L168.359 72.4446C155.905 54.4222 135.421 43.6446 113.588 43.6446H45.9671C45.1486 38.5113 40.7465 34.5777 35.4153 34.5777H10.7063C4.79989 34.5777 0 39.3999 0 45.3331V132.402C0 138.335 4.80023 143.179 10.7063 143.179H35.3933C40.0386 143.179 43.9539 140.179 45.4359 136.046H58.8411C61.0311 141.646 68.9059 157.068 88.5494 158.157V257.024C88.5494 257.046 88.5273 257.091 88.5273 257.113V327.667L72.0697 339.133C54.1296 351.644 43.4012 372.222 43.4012 394.155V462.086C38.2913 462.909 34.3756 467.331 34.3756 472.687V497.487C34.3756 503.42 39.1758 508.242 45.0819 508.242H131.753C137.659 508.242 142.481 503.42 142.481 497.487V472.687C142.481 468.02 139.495 464.087 135.381 462.598V449.131C140.955 446.931 156.351 439.042 157.435 419.287H320.199L331.613 435.82C344.067 453.842 364.551 464.62 386.384 464.62H454.028C454.846 469.753 459.248 473.687 464.579 473.687H489.266C495.173 473.687 499.972 468.864 499.972 462.931L500.017 375.84C500.017 369.906 495.194 365.061 489.288 365.061ZM362.914 258.707C364.971 263.152 366.011 267.885 366.011 272.774C366.011 282.819 361.609 292.33 353.955 298.841C346.301 305.33 336.148 308.085 326.127 306.374C313.452 304.219 302.657 294.33 299.316 281.752C297.237 273.974 297.879 265.997 301.152 258.641C301.683 257.441 301.573 256.063 300.887 254.974C300.179 253.885 298.963 253.219 297.657 253.219H253.858V208.819C261.246 211.019 268.989 211.108 276.576 209.063C291.928 204.93 304.006 191.619 306.66 175.974C308.74 163.641 305.377 151.174 297.458 141.752C289.517 132.307 277.926 126.908 265.648 126.908C261.6 126.908 257.662 127.485 253.858 128.641V96.6631H346.345H346.389H346.544H346.566H379.57C373.863 109.196 375.942 120.93 377.247 125.774L362.36 140.441C353.29 149.374 352.494 163.574 360.458 173.485L364.086 177.996C365.324 179.53 367.16 180.508 369.107 180.641C369.284 180.663 369.461 180.663 369.616 180.663C371.408 180.663 373.133 179.996 374.46 178.774L403.77 151.552V253.218H366.386C365.081 253.218 363.864 253.885 363.156 254.996C362.449 256.129 362.361 257.53 362.914 258.707ZM202.585 366.461C210.526 375.905 222.118 381.305 234.395 381.305C238.443 381.305 242.381 380.728 246.185 379.572V411.55H120.406C126.113 399.017 124.078 387.283 122.773 382.439L137.66 367.772C146.73 358.839 147.526 344.639 139.563 334.728L135.935 330.216C134.696 328.683 132.86 327.705 130.891 327.572C128.945 327.461 126.976 328.105 125.538 329.461L96.228 356.683V262.151C96.228 262.129 96.2501 262.084 96.2501 262.062V260.929H133.634C134.94 260.929 136.156 260.262 136.864 259.151C137.572 258.04 137.66 256.64 137.107 255.462C135.05 251.018 134.011 246.284 134.011 241.395C134.011 231.329 138.413 221.84 146.066 215.329C153.72 208.84 163.851 206.084 173.894 207.796C186.57 209.951 197.364 219.84 200.705 232.418C202.784 240.195 202.143 248.173 198.869 255.529C198.338 256.729 198.449 258.107 199.134 259.195C199.842 260.284 201.059 260.951 202.364 260.951H246.163V299.418C238.775 297.218 231.033 297.129 223.445 299.173C208.094 303.306 196.015 316.617 193.361 332.262C191.304 344.573 194.666 357.039 202.585 366.461ZM365.173 10.7516C365.173 9.06266 366.545 7.68492 368.226 7.68492H454.897C456.578 7.68492 457.95 9.06271 457.95 10.7516V35.5517C457.95 37.2406 456.578 38.6184 454.897 38.6184H368.226C366.545 38.6184 365.173 37.2406 365.173 35.5517V10.7516ZM367.739 66.1739C370.505 65.1294 372.296 62.5072 372.296 59.507V46.3293H448.921V114.084C448.921 133.506 439.431 151.706 423.549 162.773L411.471 171.195V144.44L427.354 129.684C428.902 128.24 429.013 125.795 427.575 124.24C426.137 122.684 423.704 122.595 422.155 124.017L369.729 172.706L366.455 168.64C360.969 161.818 361.544 152.062 367.76 145.928L382.891 131.017C384.749 129.173 385.479 126.506 384.771 124.017C383.555 119.706 381.21 107.373 389.306 95.0391L401.428 82.8837C402.844 81.4614 402.932 79.217 401.649 77.6837C400.366 76.1503 398.132 75.8615 396.495 77.017C391.164 80.817 387.138 84.8614 384.107 88.9727H350.396C351.479 74.1725 362.63 68.1069 367.739 66.1739ZM247.935 137.484C249.041 138.195 250.434 138.284 251.607 137.729C256.031 135.662 260.743 134.617 265.609 134.617C275.63 134.617 285.076 139.04 291.557 146.728C298.016 154.418 300.759 164.617 299.056 174.684C296.91 187.418 287.066 198.262 274.546 201.618C266.804 203.707 258.841 203.062 251.541 199.773C250.346 199.24 248.975 199.351 247.891 200.04C246.807 200.751 246.143 201.973 246.143 203.284V253.217H207.852C210.042 245.795 210.13 238.017 208.095 230.395C203.981 214.973 190.731 202.839 175.158 200.173C162.88 198.084 150.471 201.462 141.092 209.418C131.69 217.395 126.315 229.04 126.315 241.373C126.315 245.44 126.89 249.396 128.04 253.217H96.2085L96.2527 120.951C108.729 126.684 120.408 124.64 125.231 123.329L139.831 138.284C144.631 143.195 150.957 145.706 157.306 145.684C162.725 145.684 168.189 143.862 172.724 140.173L177.215 136.529C178.741 135.284 179.692 133.44 179.847 131.484C180.002 129.506 179.316 127.551 177.967 126.106L150.869 96.6618H246.142V134.218C246.164 135.551 246.829 136.773 247.935 137.484ZM38.4519 132.395C38.4519 134.084 37.0804 135.462 35.3993 135.462H10.7123C9.03111 135.462 7.65967 134.084 7.65967 132.395L7.68179 45.3268C7.68179 43.6379 9.05329 42.2601 10.7344 42.2601H35.4214C37.1025 42.2601 38.474 43.6379 38.474 45.3268V132.173L38.4519 132.395ZM65.882 132.884C64.8423 130.106 62.232 128.306 59.2456 128.306H46.128V51.3527H113.573C132.907 51.3527 151.024 60.8861 162.04 76.8418L170.424 88.975H143.791L129.102 73.0194C127.664 71.4638 125.231 71.3527 123.683 72.7972C122.134 74.2417 122.024 76.686 123.461 78.2416L171.928 130.908L167.902 134.197C161.111 139.708 151.4 139.153 145.295 132.886L130.452 117.708C128.616 115.841 125.961 115.108 123.483 115.819C117.798 117.441 98.0664 121.064 82.9357 99.5745C81.719 97.8411 79.3079 97.4189 77.5825 98.6412C75.857 99.8634 75.4367 102.263 76.6534 104.019C80.4361 109.375 84.462 113.374 88.5325 116.397V150.33C73.8219 149.174 67.8289 138.017 65.882 132.884ZM134.834 497.485C134.834 499.174 133.462 500.552 131.781 500.552H45.1327C43.4515 500.552 42.08 499.174 42.08 497.485V472.685C42.08 470.996 43.4515 469.618 45.1327 469.618H131.804C133.485 469.618 134.856 470.996 134.856 472.685L134.834 497.485ZM132.29 442.063C129.525 443.107 127.733 445.729 127.733 448.729V461.907H51.1079V394.13C51.1079 374.707 60.5978 356.507 76.4806 345.441L88.5585 337.018V363.774L72.6757 378.53C71.1273 379.974 71.0167 382.419 72.4545 383.974C73.2066 384.796 74.2463 385.219 75.2638 385.219C76.1929 385.219 77.1219 384.885 77.8741 384.196L130.3 335.507L133.574 339.574C139.06 346.396 138.485 356.152 132.269 362.285L117.138 377.196C115.28 379.041 114.55 381.708 115.258 384.197C116.873 389.908 120.479 409.73 99.0654 424.93C97.34 426.152 96.9197 428.552 98.1585 430.308C98.9105 431.375 100.083 431.93 101.3 431.93C102.074 431.93 102.848 431.708 103.512 431.219C108.843 427.419 112.802 423.375 115.833 419.263H149.611C148.527 434.064 137.377 440.107 132.29 442.063ZM252.072 370.752C250.966 370.041 249.572 369.952 248.4 370.508C243.976 372.575 239.264 373.619 234.397 373.619C224.377 373.619 214.931 369.197 208.45 361.508C201.991 353.819 199.247 343.619 200.951 333.552C203.097 320.819 212.94 309.975 225.46 306.619C233.203 304.53 241.144 305.174 248.466 308.463C249.661 308.997 251.032 308.886 252.116 308.197C253.2 307.486 253.864 306.263 253.864 304.952V260.974H292.155C289.965 268.397 289.876 276.174 291.911 283.796C296.026 299.218 309.276 311.352 324.849 314.019C327.238 314.419 329.605 314.619 331.994 314.619C341.838 314.619 351.372 311.174 358.937 304.774C368.316 296.796 373.714 285.152 373.714 272.818C373.714 268.752 373.139 264.796 371.988 260.974H403.82V387.307C391.366 381.574 379.664 383.618 374.842 384.929L360.242 369.974C351.35 360.863 337.215 360.041 327.349 368.063L322.858 371.707C321.332 372.952 320.381 374.796 320.226 376.752C320.071 378.729 320.757 380.685 322.106 382.129L338.431 399.863L349.204 411.574H253.931V374.018C253.842 372.685 253.178 371.464 252.072 370.752ZM337.967 431.396L329.583 419.263H356.216L370.905 435.218C371.657 436.041 372.697 436.463 373.714 436.463C374.643 436.463 375.572 436.129 376.324 435.441C377.873 433.996 377.984 431.552 376.546 429.996L344.006 394.618L328.079 377.307L332.127 374.018C338.918 368.529 348.629 369.085 354.735 375.329L369.556 390.529C371.37 392.396 374.046 393.107 376.524 392.418C382.209 390.796 401.941 387.174 417.072 408.663C417.824 409.729 418.996 410.285 420.213 410.285C420.987 410.285 421.761 410.063 422.425 409.574C424.15 408.352 424.57 405.952 423.354 404.196C419.571 398.84 415.545 394.841 411.475 391.818V357.862C426.14 358.929 432.224 370.174 434.171 375.307C435.21 378.085 437.82 379.885 440.807 379.885H453.924V456.861H386.456C367.101 456.883 348.983 447.374 337.967 431.396ZM492.35 462.907C492.35 464.596 490.978 465.974 489.297 465.974H464.61C462.929 465.974 461.557 464.596 461.557 462.907V375.839C461.557 374.15 462.929 372.772 464.61 372.772H489.297C490.978 372.772 492.35 374.15 492.35 375.839V462.907Z" fill="#1E4469"/>
<path d="M135.827 7.68887H162.372C164.495 7.68887 166.199 5.95553 166.199 3.84444C166.199 1.71111 164.473 0 162.372 0H135.827C133.703 0 132 1.73335 132 3.84444C132 5.95553 133.725 7.68887 135.827 7.68887Z" fill="#1E4469"/>
<path d="M267.827 7.68887H296.739C298.863 7.68887 300.566 5.95553 300.566 3.84444C300.566 1.71111 298.84 0 296.739 0H267.827C265.703 0 264 1.73335 264 3.84444C264 5.95553 265.703 7.68887 267.827 7.68887Z" fill="#1E4469"/>
<path d="M399.827 7.68887H426.372C428.496 7.68887 430.199 5.95553 430.199 3.84444C430.199 1.71111 428.473 0 426.372 0H399.827C397.704 0 396 1.73335 396 3.84444C395.978 5.95553 397.704 7.68887 399.827 7.68887Z" fill="#1E4469"/>
<path d="M3.8271 138.356C5.9507 138.356 7.65399 136.622 7.65399 134.511V107.844C7.65399 105.711 5.92855 104 3.8271 104C1.70351 104 0.000210325 105.733 0.000210325 107.844V134.511C-0.021909 136.622 1.70351 138.356 3.8271 138.356Z" fill="#1E4469"/>
<path d="M403.654 107.844C403.654 105.711 401.928 104 399.827 104C397.703 104 396 105.733 396 107.844V134.511C396 136.644 397.725 138.356 399.827 138.356C401.95 138.356 403.654 136.622 403.654 134.511V107.844Z" fill="#1E4469"/>
<path d="M0 240.889C0 243.022 1.72543 244.733 3.82688 244.733C5.95048 244.733 7.65378 243 7.65378 240.889V211.844C7.65378 209.711 5.92834 208 3.82688 208C1.70329 208 0 209.733 0 211.844V240.889Z" fill="#1E4469"/>
<path d="M403.654 211.844C403.654 209.711 401.928 208 399.827 208C397.703 208 396 209.733 396 211.844V240.889C396 243.022 397.725 244.733 399.827 244.733C401.95 244.733 403.654 243 403.654 240.889V211.844Z" fill="#1E4469"/>
<path d="M0 342.511C0 344.644 1.72543 346.356 3.82688 346.356C5.95048 346.356 7.65378 344.622 7.65378 342.511V315.844C7.65378 313.711 5.92834 312 3.82688 312C1.70329 312 0 313.733 0 315.844V342.511Z" fill="#1E4469"/>
<path d="M399.827 312C397.703 312 396 313.733 396 315.844V342.511C396 344.644 397.725 346.356 399.827 346.356C401.95 346.356 403.654 344.622 403.654 342.511V315.844C403.654 313.733 401.95 312 399.827 312Z" fill="#1E4469"/>
<path d="M162.372 416H135.827C133.703 416 132 417.733 132 419.844C132 421.978 133.725 423.689 135.827 423.689H162.372C164.495 423.689 166.199 421.956 166.199 419.844C166.199 417.733 164.495 416 162.372 416Z" fill="#1E4469"/>
<path d="M296.739 416H267.827C265.703 416 264 417.733 264 419.844C264 421.978 265.725 423.689 267.827 423.689H296.739C298.863 423.689 300.566 421.956 300.566 419.844C300.588 417.733 298.863 416 296.739 416Z" fill="#1E4469"/>
<path d="M426.372 416H399.827C397.703 416 396 417.733 396 419.844C396 421.978 397.725 423.689 399.827 423.689H426.372C428.495 423.689 430.199 421.956 430.199 419.844C430.199 417.733 428.495 416 426.372 416Z" fill="#1E4469"/>
</svg>
