<svg width="512" height="512" viewBox="0 0 512 512" fill="none" xmlns="http://www.w3.org/2000/svg">
<path d="M13.503 104.272L25.399 106.626L29.3574 116.189L22.6075 126.272C20.7325 129.064 21.1075 132.772 23.4617 135.126L41.7118 153.376C44.0868 155.751 47.795 156.106 50.5662 154.231L60.6494 147.481L70.2121 151.439L72.5663 163.335C73.2121 166.627 76.0871 168.981 79.4415 168.981H105.254C108.608 168.981 111.483 166.606 112.129 163.335L114.483 151.439L124.046 147.481L134.129 154.231C136.921 156.106 140.629 155.731 142.983 153.376L161.234 135.126C163.609 132.751 163.963 129.043 162.088 126.272L155.338 116.189L159.296 106.626L171.192 104.272C174.484 103.626 176.838 100.751 176.838 97.3966V71.5843C176.838 68.2301 174.463 65.355 171.192 64.7091L159.296 62.3549L155.338 52.7923L162.088 42.7091C163.963 39.9174 163.588 36.2088 161.234 33.8547L142.983 15.6045C140.608 13.2295 136.9 12.8754 134.129 14.7503L124.046 21.5002L114.483 17.5419L112.129 5.64587C111.483 2.35419 108.608 0 105.254 0H79.4415C76.0873 0 73.2121 2.37499 72.5663 5.64587L70.2121 17.5419L60.6494 21.5002L50.5662 14.7503C47.7745 12.8754 44.0659 13.2503 41.7118 15.6045L23.4617 33.8547C21.0867 36.2297 20.7325 39.9379 22.6075 42.7091L29.3574 52.7923L25.399 62.3549L13.503 64.7091C10.2113 65.3549 7.85715 68.23 7.85715 71.5843V97.3966C7.85715 100.751 10.2321 103.626 13.503 104.272ZM21.8779 77.355L31.7947 75.3966C34.0864 74.9383 36.0239 73.3758 36.9198 71.2091L43.7528 54.7089C44.6487 52.5422 44.3986 50.063 43.107 48.1254L37.4611 39.7089L47.5651 29.6257L55.9817 35.2715C57.9192 36.584 60.3983 36.8132 62.5651 35.9173L79.0654 29.0843C81.2321 28.1884 82.7946 26.2718 83.2529 23.9593L85.2113 14.0425H99.4822L101.441 23.9593C101.899 26.2509 103.461 28.1884 105.628 29.0843L122.128 35.9173C124.295 36.8132 126.774 36.5631 128.712 35.2715L137.128 29.6257L147.212 39.7297L141.566 48.1462C140.253 50.1045 140.024 52.5629 140.92 54.7297L147.753 71.2299C148.649 73.3966 150.565 74.9591 152.878 75.4174L162.795 77.3758V91.6467L152.878 93.6051C150.586 94.0634 148.649 95.6259 147.753 97.7926L140.92 114.293C140.024 116.46 140.274 118.939 141.566 120.876L147.212 129.293L137.128 139.376L128.712 133.73C126.753 132.418 124.295 132.189 122.128 133.084L105.628 139.917C103.461 140.813 101.899 142.73 101.441 145.042L99.4822 154.959H85.2113L83.2529 145.042C82.7946 142.751 81.2321 140.813 79.0654 139.917L62.5651 133.084C60.3985 132.189 57.9193 132.439 55.9817 133.73L47.5651 139.376L37.4819 129.272L43.1278 120.856C44.4403 118.897 44.6695 116.439 43.7736 114.272L36.9406 97.7718C36.0447 95.6051 34.1281 94.0426 31.8155 93.5843L21.8987 91.6259V77.355H21.8779ZM92.358 131.248C118.129 131.248 139.108 110.269 139.108 84.4985C139.108 58.707 118.129 37.7486 92.358 37.7486C66.5665 37.7486 45.6081 58.7278 45.6081 84.4985C45.6081 110.29 66.5873 131.248 92.358 131.248ZM92.358 51.771C110.4 51.771 125.087 66.4585 125.087 84.5001C125.087 102.542 110.4 117.229 92.358 117.229C74.3164 117.229 59.6289 102.542 59.6289 84.5001C59.6289 66.4585 74.3164 51.771 92.358 51.771ZM229.505 127.686C229.505 123.811 232.65 120.665 236.525 120.665H343.651C347.526 120.665 350.672 123.811 350.672 127.686C350.672 131.561 347.526 134.706 343.651 134.706H236.525C232.65 134.706 229.505 131.561 229.505 127.686ZM370.566 172.394C338.712 172.394 312.795 198.311 312.795 230.165C312.795 262.019 338.712 287.935 370.566 287.935C402.42 287.935 428.337 262.018 428.337 230.165C428.337 198.31 402.42 172.394 370.566 172.394ZM370.566 273.914C346.441 273.914 326.816 254.289 326.816 230.164C326.816 206.039 346.441 186.414 370.566 186.414C394.691 186.414 414.316 206.039 414.316 230.164C414.316 254.289 394.691 273.914 370.566 273.914ZM498.337 326.206L456.732 284.601C453.045 280.914 447.816 279.643 443.086 280.789L439.128 276.831C437.357 275.06 437.045 272.539 438.316 270.372C445.524 258.248 449.336 244.331 449.336 230.143C449.336 194.727 425.858 164.703 393.63 154.81V79.6631C393.63 67.7463 383.942 58.0588 372.026 58.0588H343.171C342.754 53.9547 340.817 50.2674 337.588 47.5586C333.921 44.4961 329.317 43.2461 324.629 44.0794L314.358 45.8711C311.754 34.8711 301.837 26.6626 290.046 26.6626C278.254 26.6626 268.338 34.8711 265.733 45.8711L255.462 44.0794C250.754 43.2669 246.15 44.4961 242.504 47.5586C239.275 50.2669 237.337 53.9543 236.92 58.0588H208.066C196.149 58.0588 186.462 67.7463 186.462 79.6631V280.852C186.462 292.769 196.149 302.457 208.066 302.457H339.314C348.898 306.603 359.46 308.936 370.543 308.936C384.731 308.936 398.647 305.123 410.773 297.915C412.919 296.644 415.46 296.956 417.231 298.727L421.168 302.665C420.898 303.79 420.752 304.936 420.752 306.102C420.752 309.977 422.252 313.602 424.981 316.332L429.418 320.769C425.877 321.498 422.127 322.894 418.273 325.123C399.939 335.707 354.587 357.832 320.337 370.894C321.503 364.602 320.378 358.061 316.941 352.269C311.816 343.665 302.837 338.727 292.858 339.06C250.462 339.04 223.002 327.644 198.772 317.602C176.668 308.435 157.564 300.519 134.938 305.998C112.167 311.519 87.9377 330.352 56.7084 366.873C53.8334 365.518 50.6668 364.789 47.3958 364.789C41.4998 364.789 35.9793 367.081 31.8124 371.227L2.06251 400.977C0.750026 402.289 0 404.081 0 405.935C0 407.789 0.729173 409.581 2.06251 410.893L94.0198 502.851C95.3323 504.163 97.124 504.913 98.9782 504.913C100.832 504.913 102.624 504.184 103.937 502.851L133.686 473.101C137.832 468.955 140.124 463.413 140.124 457.517C140.124 454.892 139.645 452.33 138.77 449.934C157.624 442.122 178.666 441.455 205.522 443.059C211.605 443.413 217.98 443.934 224.73 444.475C240.772 445.767 257.355 447.1 273.397 446.746C307.126 445.996 327.418 436.538 354.522 422.183C382.126 407.558 441.002 372.642 452.021 358.141C454.396 355.016 456.083 351.745 457.104 348.474L466.562 357.932C470.937 362.307 476.687 364.495 482.437 364.495C488.187 364.495 493.937 362.307 498.313 357.932C507.063 349.182 507.063 334.932 498.313 326.182L498.337 326.206ZM123.793 463.187L99.0011 487.978L16.9585 405.936L41.75 381.144C43.25 379.644 45.25 378.811 47.4166 378.811C49.5624 378.811 51.5833 379.644 53.0833 381.144L123.793 451.854C125.293 453.354 126.126 455.354 126.126 457.52C126.126 459.666 125.293 461.687 123.793 463.187ZM440.875 349.688C433.167 359.813 383.75 390.876 347.979 409.811C322.646 423.228 303.75 432.082 273.105 432.749C257.792 433.082 241.563 431.769 225.875 430.519C219.042 429.978 212.604 429.457 206.376 429.082C182.396 427.644 154.98 427.144 130.168 438.415L67.5436 375.791C129.021 303.855 152.088 313.397 193.421 330.541C217.609 340.583 247.736 353.062 293.005 353.062H293.276C298.088 352.875 302.443 355.25 304.901 359.416C307.38 363.583 307.38 368.541 304.922 372.666C300.38 380.292 283.859 384.25 260.713 383.229C238.942 382.271 217.026 377.084 208.442 372.604C205.005 370.812 200.776 372.146 198.984 375.583C197.192 379.021 198.526 383.25 201.963 385.041C213.692 391.145 238.13 396.271 260.086 397.229C262.544 397.333 265.065 397.396 267.649 397.396C279.336 397.396 291.961 396.104 301.94 391.917C336.649 382.125 401.418 351.021 425.274 337.229C433.315 332.604 439.899 333.812 442.628 336.916C445.274 339.937 444.628 344.687 440.878 349.625L440.875 349.688ZM250.897 59.7523C250.897 59.1065 251.063 58.7315 251.563 58.3148C252.063 57.8982 252.459 57.794 253.084 57.8982L270.896 61.0232C272.938 61.3773 275.021 60.8148 276.605 59.4815C278.188 58.1482 279.105 56.1898 279.105 54.1066V51.6274C279.105 45.5858 284.021 40.669 290.063 40.669C296.105 40.669 301.021 45.5857 301.021 51.6274V54.1066C301.021 56.1691 301.938 58.1482 303.521 59.4815C305.105 60.8149 307.188 61.3774 309.23 61.0232L327.042 57.8982C327.667 57.794 328.084 57.8982 328.563 58.3148C329.063 58.7315 329.23 59.1065 329.23 59.7523V72.0649H250.878V59.7523H250.897ZM208.105 288.462C203.918 288.462 200.522 285.066 200.522 280.878L200.501 79.6889C200.501 75.5013 203.897 72.1054 208.084 72.1054H236.855V79.0846C236.855 82.9596 240.001 86.1054 243.876 86.1054H336.27C340.145 86.1054 343.291 82.9596 343.291 79.0846V72.1054H372.062C376.249 72.1054 379.645 75.5012 379.645 79.6889V151.897C376.666 151.564 373.645 151.355 370.583 151.355C356.792 151.355 343.812 154.939 332.521 161.189H236.521C232.646 161.189 229.5 164.335 229.5 168.21C229.5 172.085 232.646 175.23 236.521 175.23H314.169C306.835 182.751 300.981 191.751 297.106 201.731H236.504C232.629 201.731 229.483 204.876 229.483 208.751C229.483 212.626 232.629 215.772 236.504 215.772H293.106C292.231 220.46 291.752 225.272 291.752 230.189C291.752 234.293 292.065 238.314 292.669 242.251H236.482C232.607 242.251 229.461 245.397 229.461 249.272C229.461 253.147 232.607 256.293 236.482 256.293H296.21C300.585 268.751 308.022 279.793 317.585 288.501H208.065L208.105 288.462ZM403.646 285.878C393.688 291.795 382.251 294.941 370.584 294.941C334.876 294.941 305.811 265.878 305.811 230.167C305.811 194.459 334.873 165.394 370.584 165.394C406.292 165.394 435.357 194.456 435.357 230.167C435.357 241.834 432.232 253.251 426.295 263.23C421.774 270.834 422.983 280.501 429.233 286.751L431.691 289.209L429.628 291.272L427.17 288.813C420.92 282.563 411.23 281.358 403.646 285.878ZM488.457 348.022C485.165 351.314 479.832 351.314 476.54 348.022L434.936 306.418C434.894 306.376 434.811 306.293 434.811 306.106C434.811 305.918 434.894 305.835 434.936 305.793L446.228 294.501C446.311 294.418 446.415 294.376 446.54 294.376C446.645 294.376 446.77 294.418 446.853 294.501L488.457 336.106C491.749 339.397 491.749 344.731 488.457 348.022Z" fill="#1E4469"/>
</svg>
