<svg width="512" height="512" viewBox="0 0 512 512" fill="none" xmlns="http://www.w3.org/2000/svg">
<g clip-path="url(#clip0_1441_15406)">
<path d="M451.455 278.638C462.794 269.718 469.434 256.139 469.514 241.719C469.234 215.298 447.754 194.039 421.334 194.039C394.914 194.039 373.415 215.298 373.154 241.719C373.214 256.139 379.854 269.739 391.194 278.638C376.754 283.698 363.814 292.299 353.574 303.678C336.574 288.318 316.194 277.178 294.096 271.178C313.136 259.958 326.276 240.898 329.975 219.097C333.695 197.318 327.595 174.997 313.335 158.098C299.075 141.218 278.096 131.458 255.997 131.458C233.898 131.458 212.917 141.218 198.659 158.098C184.398 174.998 178.299 197.318 182.019 219.097C185.719 240.897 198.859 259.958 217.898 271.178C195.799 277.178 175.419 288.318 158.42 303.678C148.18 292.298 135.24 283.699 120.8 278.638C132.14 269.738 138.78 256.139 138.839 241.719C138.579 215.298 117.08 194.039 90.6596 194.039C64.2396 194.039 42.7599 215.298 42.4798 241.719C42.5598 256.139 49.1997 269.719 60.5394 278.638C42.9396 284.718 27.6396 296.099 16.7996 311.238C5.95963 326.378 0.0798714 344.518 0 363.14V437.82C0.0399997 447.9 8.24006 456.06 18.3397 456.04H110.079V486.22V486.2C110.099 500.14 121.379 511.42 135.319 511.44H376.679C390.619 511.44 401.919 500.14 401.939 486.2V456.04H493.658C503.758 456.06 511.958 447.9 511.998 437.82V363.14C511.918 344.52 506.037 326.38 495.198 311.238C484.358 296.099 469.054 284.718 451.455 278.638ZM389.154 241.719C388.954 228.659 396.675 216.779 408.674 211.639C420.694 206.519 434.614 209.139 443.914 218.319C453.214 227.479 456.054 241.359 451.114 253.439C446.154 265.539 434.394 273.419 421.334 273.419C403.694 273.539 389.315 259.359 389.154 241.719ZM196.957 206.879C196.957 182.998 211.337 161.459 233.396 152.32C255.456 143.18 280.856 148.24 297.754 165.12C314.634 182.02 319.694 207.4 310.554 229.478C301.414 251.538 279.874 265.918 255.996 265.918C223.396 265.878 196.977 239.477 196.957 206.879ZM268.795 440.919C268.955 442.479 268.355 443.999 267.215 445.039L256.315 454.939C254.435 456.659 251.575 456.659 249.695 454.939L238.795 445.039C237.615 443.939 237.035 442.319 237.235 440.699L248.715 282.317C251.135 282.177 253.515 281.957 255.975 281.957C256.415 281.957 256.835 282.017 257.275 282.017L268.795 440.919ZM58.4771 241.72C58.2971 228.66 65.9973 216.78 78.0169 211.64C90.0171 206.52 103.937 209.14 113.257 218.32C122.556 227.48 125.397 241.36 120.436 253.44C115.496 265.54 103.717 273.42 90.6566 273.42C73.0367 273.52 58.6374 259.36 58.4771 241.72ZM110.076 411.878V440.038H50.4388V351.739C50.4788 349.579 49.6588 347.499 48.1588 345.939C46.6588 344.399 44.5788 343.539 42.4388 343.539C40.2788 343.539 38.1988 344.399 36.6988 345.939C35.1988 347.499 34.3788 349.579 34.4388 351.739V440.038H18.3391C17.0791 440.058 16.0391 439.058 15.9991 437.818V363.138C16.1391 343.478 24.0789 324.658 38.0789 310.837C52.079 297.017 70.9987 289.317 90.6609 289.417C112.281 289.437 132.841 298.777 147.119 315.017C123.259 341.637 110.076 376.141 110.076 411.878ZM385.934 486.2C385.914 491.28 381.794 495.4 376.714 495.42H344.514L344.494 392.6C344.394 388.28 340.854 384.801 336.494 384.801C332.154 384.801 328.614 388.281 328.495 392.6V495.441H183.518V392.6C183.398 388.28 179.858 384.801 175.518 384.801C171.178 384.801 167.618 388.281 167.518 392.6V495.441H135.318C130.218 495.421 126.118 491.301 126.098 486.22V411.878C126.138 381.498 136.818 352.118 156.278 328.781C175.717 305.461 202.717 289.681 232.596 284.181L221.336 439.322H221.316C220.676 445.922 223.176 452.422 228.076 456.882L238.976 466.782C246.936 474.042 259.135 474.042 267.075 466.782L277.975 456.882H277.995C282.835 452.482 285.355 446.062 284.755 439.542L273.395 283.264C304.535 287.504 333.073 302.864 353.753 326.504C374.433 350.144 385.852 380.464 385.912 411.885L385.934 486.2ZM496.013 437.82C495.973 439.06 494.933 440.06 493.674 440.04H477.554V351.741C477.614 349.581 476.794 347.501 475.294 345.941C473.794 344.401 471.714 343.541 469.554 343.541C467.414 343.541 465.334 344.401 463.834 345.941C462.334 347.501 461.514 349.581 461.554 351.741V440.04H401.917V411.88C401.917 376.14 388.717 341.68 364.877 315.061C379.137 298.801 399.697 289.481 421.314 289.441C440.994 289.341 459.894 297.041 473.896 310.861C487.898 324.681 495.836 343.501 495.976 363.162L496.013 437.82ZM103.579 97.9394L99.5989 121.16H99.5789C98.7189 126.16 100.779 131.219 104.879 134.2C108.999 137.2 114.439 137.58 118.939 135.22L139.779 124.26L160.619 135.22C162.539 136.24 164.679 136.76 166.838 136.76C170.778 136.74 174.498 135 177.018 132C179.538 128.98 180.618 125.02 179.958 121.14L175.978 97.9195L192.878 81.4996C196.518 77.9596 197.818 72.6595 196.238 67.8395C194.678 62.9995 190.498 59.4796 185.478 58.7597L162.178 55.3797L151.738 34.2597C149.258 29.9997 144.718 27.3595 139.778 27.3595C134.858 27.3595 130.298 29.9994 127.819 34.2597L117.399 55.3797L94.0787 58.7597V58.7797C89.0587 59.5197 84.8986 63.0397 83.3186 67.8595C81.7586 72.6995 83.0586 77.9996 86.6985 81.5396L103.579 97.9394ZM121.079 70.9995C125.419 70.3795 129.179 67.6395 131.119 63.6994L139.778 46.1593L148.418 63.6794C150.338 67.6394 154.118 70.3795 158.458 70.9995L177.818 73.8195L163.838 87.4996C160.698 90.5596 159.278 94.9594 160.018 99.2797L163.318 118.54L145.998 109.42V109.44C142.118 107.4 137.478 107.4 133.598 109.44L116.278 118.54L119.578 99.2598L119.598 99.2398C120.338 94.9198 118.898 90.4999 115.758 87.4397L101.758 73.7995L121.079 70.9995ZM216.817 70.5595L212.837 93.7797C211.957 98.7997 214.017 103.86 218.117 106.86C222.237 109.84 227.697 110.22 232.177 107.84L253.016 96.8799L273.856 107.84H273.876C278.356 110.24 283.816 109.86 287.936 106.86C292.056 103.88 294.116 98.7999 293.236 93.7797L289.256 70.5595L306.156 54.1397H306.136C309.776 50.5997 311.076 45.2995 309.516 40.4595C307.936 35.6395 303.776 32.1196 298.756 31.3797L275.436 27.9997L264.976 6.8398C262.496 2.59983 257.936 0 253.017 0C248.097 0 243.556 2.59999 241.077 6.8398L230.657 27.9798L207.337 31.3598V31.3798C202.317 32.1198 198.137 35.6398 196.577 40.4596C194.997 45.2996 196.317 50.5997 199.937 54.1397L216.817 70.5595ZM234.317 43.6196C238.657 42.9996 242.417 40.2596 244.377 36.3195L253.037 18.7794L261.697 36.3195H261.677C263.636 40.2595 267.377 42.9996 271.736 43.6196L291.096 46.4396L277.076 60.1197H277.056C273.936 63.1797 272.516 67.5796 273.236 71.8798L276.536 91.1397L259.196 82.04H259.216C255.336 80.02 250.716 80.02 246.836 82.04L229.516 91.1397L232.816 71.8599C233.556 67.5199 232.116 63.12 228.976 60.0399L214.976 46.4401L234.317 43.6196ZM313.195 81.4994L330.055 97.9192L326.075 121.139V121.159C325.215 126.159 327.275 131.219 331.375 134.2C335.475 137.18 340.935 137.58 345.435 135.22L366.275 124.26L387.115 135.22C389.035 136.22 391.175 136.76 393.335 136.76C397.275 136.74 400.995 135 403.515 131.98C406.055 128.98 407.135 125.019 406.475 121.14L402.495 97.9193L419.395 81.4995H419.375C423.015 77.9595 424.314 72.6593 422.734 67.8393C421.174 62.9993 416.995 59.4794 411.974 58.7595L388.674 55.3795L378.234 34.2595C375.994 29.7195 371.354 26.8396 366.275 26.8396C361.195 26.7996 356.535 29.6996 354.295 34.2595L343.875 55.3795L320.555 58.7595V58.7795C315.535 59.4995 311.355 63.0395 309.795 67.8593C308.235 72.6993 309.535 77.9995 313.175 81.5394L313.195 81.4994ZM347.575 70.9793V70.9993C351.915 70.3794 355.674 67.6393 357.614 63.6992L366.274 46.1592L374.914 63.6793C376.854 67.6193 380.614 70.3593 384.974 70.9993L404.333 73.8193L390.313 87.4994C387.173 90.5595 385.754 94.9593 386.494 99.2795L389.793 118.539L372.474 109.42L372.454 109.44C368.574 107.4 363.954 107.4 360.074 109.44L342.754 118.539L346.054 99.2796C346.794 94.9596 345.354 90.5397 342.214 87.4595L328.214 73.8194L347.575 70.9793Z" fill="#1E4469"/>
</g>
<defs>
<clipPath id="clip0_1441_15406">
<rect width="512" height="512" fill="white"/>
</clipPath>
</defs>
</svg>
