<svg width="216" height="216" viewBox="0 0 216 216" fill="none" xmlns="http://www.w3.org/2000/svg">
<path d="M15.1678 98.2798L25.8443 97.6164C38.5393 96.8308 51.2794 98.0122 63.6135 101.119L81.5106 105.624C86.2573 106.822 90.4136 109.689 93.2187 113.701C96.0237 117.713 97.2897 122.601 96.7849 127.471C95.5815 139.274 84.5964 147.528 72.9324 145.46L55.8838 142.406L116.009 153.19L178.294 138.41C183.137 137.27 188.232 138.062 192.501 140.617C196.77 143.171 199.875 147.289 201.159 152.095C203.628 161.398 198.799 171.072 189.896 174.698L140.062 194.924C115.834 204.765 88.8391 205.385 64.1843 196.668L12.5449 178.385M147.622 19.3627C148.159 18.035 149.08 16.8979 150.268 16.0973C151.455 15.2966 152.855 14.8689 154.287 14.8689C155.719 14.8689 157.119 15.2966 158.307 16.0973C159.494 16.8979 160.415 18.035 160.952 19.3627L170.009 41.4719L194.587 43.6319C201.005 44.1873 203.504 52.2719 198.521 56.345L183.91 68.3484C182.89 69.1931 182.12 70.3011 181.685 71.5523C181.25 72.8035 181.165 74.1499 181.442 75.4456L186.286 97.8478C186.591 99.2492 186.47 100.71 185.938 102.041C185.406 103.373 184.488 104.516 183.302 105.322C182.116 106.128 180.716 106.561 179.282 106.566C177.848 106.57 176.445 106.145 175.255 105.346L154.287 91.337L133.32 105.377C132.128 106.178 130.723 106.604 129.287 106.599C127.851 106.595 126.449 106.16 125.262 105.352C124.076 104.543 123.158 103.398 122.628 102.063C122.098 100.729 121.98 99.2657 122.288 97.8633L127.133 75.4456C127.406 74.1523 127.32 72.8089 126.885 71.5608C126.45 70.3127 125.682 69.2072 124.664 68.3639L110.053 56.3604C108.946 55.4548 108.134 54.2394 107.721 52.8698C107.309 51.5002 107.314 50.0385 107.736 48.6718C108.159 47.3051 108.979 46.0955 110.093 45.1977C111.206 44.2999 112.563 43.7547 113.988 43.6319L138.565 41.4719L147.622 19.3627Z" stroke="#414141" stroke-width="6" stroke-linecap="round" stroke-linejoin="round"/>
</svg>
