<svg width="216" height="216" viewBox="0 0 216 216" fill="none" xmlns="http://www.w3.org/2000/svg">
<path d="M194.826 22.7011C194.755 22.3549 194.586 22.0364 194.339 21.783C194.092 21.5297 193.778 21.352 193.434 21.271C170.493 15.66 117.497 35.6527 88.7545 64.3739C83.6321 69.4545 78.9612 74.9709 74.7946 80.8608C65.9352 80.0592 57.0759 80.7342 49.5327 84.0249C28.2323 93.3905 22.0349 117.851 20.3052 128.351C20.2115 128.927 20.2516 129.516 20.4222 130.073C20.5929 130.631 20.8896 131.141 21.2894 131.566C21.6892 131.99 22.1813 132.316 22.7276 132.52C23.2739 132.723 23.8597 132.798 24.4396 132.739L58.641 128.984C58.6645 131.564 58.8194 134.141 59.1051 136.704C59.2836 138.477 60.0743 140.131 61.341 141.383L74.5837 154.626C75.8368 155.893 77.4929 156.684 79.2665 156.862C81.815 157.146 84.3762 157.301 86.9404 157.326L83.1899 191.498C83.1314 192.077 83.2068 192.662 83.4103 193.207C83.6138 193.752 83.9401 194.244 84.3637 194.643C84.7874 195.042 85.2972 195.338 85.8537 195.509C86.4102 195.68 86.9985 195.721 87.5732 195.628C98.0779 193.94 122.589 187.743 131.9 166.447C135.19 158.895 135.865 150.082 135.106 141.265C141.013 137.102 146.545 132.431 151.639 127.305C180.487 98.6175 200.353 46.786 194.826 22.7011ZM125.998 90.1421C123.478 87.6229 121.762 84.4131 121.066 80.9186C120.371 77.4241 120.727 73.8019 122.091 70.51C123.454 67.2181 125.763 64.4045 128.725 62.4249C131.688 60.4453 135.171 59.3887 138.734 59.3887C142.297 59.3887 145.78 60.4453 148.742 62.4249C151.705 64.4045 154.014 67.2181 155.377 70.51C156.741 73.8019 157.097 77.4241 156.402 80.9186C155.706 84.4131 153.99 87.6229 151.47 90.1421C149.799 91.8169 147.814 93.1457 145.628 94.0523C143.443 94.9589 141.1 95.4256 138.734 95.4256C136.368 95.4256 134.025 94.9589 131.84 94.0523C129.654 93.1457 127.669 91.8169 125.998 90.1421Z" stroke="#414141" stroke-width="6" stroke-linecap="round" stroke-linejoin="round"/>
<path d="M46.2544 148.5C42.0488 149.016 38.1362 150.923 35.138 153.917C27.7045 161.376 27 189 27 189C27 189 54.6412 188.295 62.0789 180.854C65.0851 177.86 66.9949 173.941 67.5 169.729" stroke="#414141" stroke-width="6" stroke-linecap="round" stroke-linejoin="round"/>
</svg>
