<svg width="216" height="216" viewBox="0 0 216 216" fill="none" xmlns="http://www.w3.org/2000/svg">
<path d="M33.4633 89.6862L9.41016 65.6022M79.2244 60.1405L69.4273 28.4348M182.534 89.6862L206.587 65.6177M136.773 60.1405L146.57 28.4348M107.999 55.9285C43.3993 55.9285 16.2759 114.033 16.2759 115.236C16.2759 116.439 43.3993 174.528 107.999 174.528C172.598 174.528 199.722 116.439 199.722 115.236C199.722 114.033 172.598 55.9285 107.999 55.9285Z" stroke="#414141" stroke-width="6" stroke-linecap="round" stroke-linejoin="round"/>
<path d="M81.8644 109.25C81.0291 112.699 80.887 116.281 81.4464 119.786C82.0057 123.291 83.2553 126.65 85.1227 129.668C86.9901 132.686 89.4382 135.304 92.3249 137.369C95.2117 139.434 98.4797 140.906 101.939 141.698C105.399 142.49 108.982 142.588 112.48 141.985C115.977 141.383 119.321 140.091 122.316 138.187C125.311 136.282 127.898 133.802 129.927 130.89C131.956 127.978 133.387 124.692 134.136 121.222C134.972 117.773 135.114 114.191 134.554 110.686C133.995 107.181 132.745 103.822 130.878 100.804C129.011 97.7856 126.563 95.168 123.676 93.1029C120.789 91.0379 117.521 89.5665 114.061 88.774C110.602 87.9816 107.019 87.8839 103.521 88.4866C100.023 89.0893 96.68 90.3805 93.685 92.2851C90.69 94.1898 88.1029 96.6701 86.0738 99.5823C84.0447 102.494 82.6139 105.78 81.8644 109.25Z" stroke="#414141" stroke-width="6" stroke-linecap="round" stroke-linejoin="round"/>
</svg>
