<svg id="Layer_1" data-name="Layer 1" xmlns="http://www.w3.org/2000/svg" viewBox="0 0 964.54 964.54"><path d="M759.69,146.8H204.85a58.05,58.05,0,0,0-58,58V759.69a58.05,58.05,0,0,0,58,58H759.69a58.05,58.05,0,0,0,58-58V204.85A58.05,58.05,0,0,0,759.69,146.8Zm3.13,593.78A23.45,23.45,0,0,1,739.37,764H347.71a23.44,23.44,0,0,1-23.44-23.45v-400a23.44,23.44,0,0,1,23.44-23.45H612.77a23.44,23.44,0,0,1,23.44,23.45V623.88a23.44,23.44,0,0,1-23.44,23.45H473.5a23.45,23.45,0,0,1-23.45-23.45V550a23.45,23.45,0,0,1,23.45-23.45h11.25A23.45,23.45,0,0,1,508.2,550v15.77a23.44,23.44,0,0,0,23.44,23.44h23a23.44,23.44,0,0,0,23.45-23.44v-167a23.45,23.45,0,0,0-23.45-23.45H405.86a23.45,23.45,0,0,0-23.45,23.45V682.44a23.44,23.44,0,0,0,23.45,23.44H681.23a23.43,23.43,0,0,0,23.44-23.44V282.1a23.43,23.43,0,0,0-23.44-23.44H280.89a23.43,23.43,0,0,0-23.44,23.44V740.58A23.45,23.45,0,0,1,234,764H222.75a23.45,23.45,0,0,1-23.45-23.45V224a23.45,23.45,0,0,1,23.45-23.45H739.37A23.45,23.45,0,0,1,762.82,224ZM451.22,457.44a29.84,29.84,0,1,1,29.84,29.84A29.84,29.84,0,0,1,451.22,457.44Z" fill="#14a8bf"/></svg>